<?xml version="1.0" encoding="UTF-8" standalone="no"?>
<!DOCTYPE svg PUBLIC "-//W3C//DTD SVG 1.1//EN"
 "http://www.w3.org/Graphics/SVG/1.1/DTD/svg11.dtd">
<!-- Generated by graphviz version 2.43.0 (0)
 -->
<!-- Title: G Pages: 1 -->
<svg width="759pt" height="495pt"
 viewBox="0.00 0.00 759.32 495.28" xmlns="http://www.w3.org/2000/svg" xmlns:xlink="http://www.w3.org/1999/xlink">
<g id="graph0" class="graph" transform="scale(1 1) rotate(0) translate(4 491.28)">
<title>G</title><style>.edge>path:hover{stroke-width:8}</style>
<polygon fill="white" stroke="transparent" points="-4,4 -4,-491.28 755.32,-491.28 755.32,4 -4,4"/>
<!-- wotr_agent -->
<g id="node1" class="node">
<title>wotr_agent</title><style>.edge>path:hover{stroke-width:8}</style>
<ellipse fill="#ce3b3b" stroke="black" cx="667.4" cy="-469.28" rx="40.06" ry="18"/>
<text text-anchor="middle" x="667.4" y="-466.78" font-family="Helvetica,sans-Serif" font-size="10.00" fill="#ffffff">wotr.agent</text>
</g>
<!-- wotr_main -->
<g id="node8" class="node">
<title>wotr_main</title><style>.edge>path:hover{stroke-width:8}</style>
<ellipse fill="#813737" stroke="black" cx="256.4" cy="-18" rx="38.03" ry="18"/>
<text text-anchor="middle" x="256.4" y="-15.5" font-family="Helvetica,sans-Serif" font-size="10.00" fill="#ffffff">wotr.main</text>
</g>
<!-- wotr_agent&#45;&gt;wotr_main -->
<g id="edge1" class="edge">
<title>wotr_agent&#45;&gt;wotr_main</title><style>.edge>path:hover{stroke-width:8}</style>
<path fill="none" stroke="black" d="M679.06,-451.87C694.68,-428.87 721.78,-385.13 733.4,-343.28 753.71,-270.07 764.16,-236.75 723.4,-172.64"/>
</g>
<!-- wotr_player -->
<g id="node11" class="node">
<title>wotr_player</title><style>.edge>path:hover{stroke-width:8}</style>
<ellipse fill="#932424" stroke="black" cx="573.4" cy="-397.28" rx="41.59" ry="18"/>
<text text-anchor="middle" x="573.4" y="-394.78" font-family="Helvetica,sans-Serif" font-size="10.00" fill="#ffffff">wotr.player</text>
</g>
<!-- wotr_agent&#45;&gt;wotr_player -->
<g id="edge2" class="edge">
<title>wotr_agent&#45;&gt;wotr_player</title><style>.edge>path:hover{stroke-width:8}</style>
<path fill="none" stroke="black" d="M647.46,-453.43C634.22,-443.57 616.62,-430.47 601.91,-419.51"/>
<polygon fill="#ce3b3b" stroke="black" points="603.74,-416.51 593.63,-413.34 599.56,-422.12 603.74,-416.51"/>
</g>
<!-- wotr_battleground -->
<g id="node2" class="node">
<title>wotr_battleground</title><style>.edge>path:hover{stroke-width:8}</style>
<ellipse fill="#b81414" stroke="black" cx="134.4" cy="-171.64" rx="55.72" ry="21.43"/>
<text text-anchor="middle" x="134.4" y="-174.64" font-family="Helvetica,sans-Serif" font-size="10.00" fill="#ffffff">wotr.</text>
<text text-anchor="middle" x="134.4" y="-163.64" font-family="Helvetica,sans-Serif" font-size="10.00" fill="#ffffff">battleground</text>
</g>
<!-- wotr_battlegrounds -->
<g id="node3" class="node">
<title>wotr_battlegrounds</title><style>.edge>path:hover{stroke-width:8}</style>
<ellipse fill="#a83838" stroke="black" cx="59.4" cy="-93.21" rx="59.29" ry="21.43"/>
<text text-anchor="middle" x="59.4" y="-96.21" font-family="Helvetica,sans-Serif" font-size="10.00" fill="#ffffff">wotr.</text>
<text text-anchor="middle" x="59.4" y="-85.21" font-family="Helvetica,sans-Serif" font-size="10.00" fill="#ffffff">battlegrounds</text>
</g>
<!-- wotr_battleground&#45;&gt;wotr_battlegrounds -->
<g id="edge3" class="edge">
<title>wotr_battleground&#45;&gt;wotr_battlegrounds</title><style>.edge>path:hover{stroke-width:8}</style>
<path fill="none" stroke="black" d="M108.22,-143.96C100.83,-136.44 92.8,-128.25 85.43,-120.74"/>
<polygon fill="#b81414" stroke="black" points="105.97,-146.67 115.47,-151.35 110.97,-141.77 105.97,-146.67"/>
<polygon fill="#b81414" stroke="black" points="87.82,-118.18 78.32,-113.49 82.82,-123.08 87.82,-118.18"/>
</g>
<!-- wotr_battleground&#45;&gt;wotr_main -->
<g id="edge4" class="edge">
<title>wotr_battleground&#45;&gt;wotr_main</title><style>.edge>path:hover{stroke-width:8}</style>
<path fill="none" stroke="black" d="M143.41,-150.38C153.32,-129.42 170.62,-96.4 191.4,-72 201.73,-59.87 215.1,-48.42 227.03,-39.29"/>
<polygon fill="#b81414" stroke="black" points="229.46,-41.85 235.4,-33.08 225.29,-36.23 229.46,-41.85"/>
</g>
<!-- wotr_scoring_area -->
<g id="node13" class="node">
<title>wotr_scoring_area</title><style>.edge>path:hover{stroke-width:8}</style>
<ellipse fill="#bc2f2f" stroke="black" cx="256.4" cy="-93.21" rx="55.72" ry="21.43"/>
<text text-anchor="middle" x="256.4" y="-96.21" font-family="Helvetica,sans-Serif" font-size="10.00" fill="#ffffff">wotr.</text>
<text text-anchor="middle" x="256.4" y="-85.21" font-family="Helvetica,sans-Serif" font-size="10.00" fill="#ffffff">scoring_area</text>
</g>
<!-- wotr_battleground&#45;&gt;wotr_scoring_area -->
<g id="edge5" class="edge">
<title>wotr_battleground&#45;&gt;wotr_scoring_area</title><style>.edge>path:hover{stroke-width:8}</style>
<path fill="none" stroke="black" d="M162.39,-153.11C179.43,-142.43 201.41,-128.66 219.82,-117.13"/>
<polygon fill="#b81414" stroke="black" points="221.92,-119.94 228.54,-111.67 218.21,-114.01 221.92,-119.94"/>
</g>
<!-- wotr_state -->
<g id="node14" class="node">
<title>wotr_state</title><style>.edge>path:hover{stroke-width:8}</style>
<ellipse fill="#a90404" stroke="black" cx="397.4" cy="-325.28" rx="38.03" ry="18"/>
<text text-anchor="middle" x="397.4" y="-322.78" font-family="Helvetica,sans-Serif" font-size="10.00" fill="#ffffff">wotr.state</text>
</g>
<!-- wotr_cards -->
<g id="node4" class="node">
<title>wotr_cards</title><style>.edge>path:hover{stroke-width:8}</style>
<ellipse fill="#bc2f2f" stroke="black" cx="647.4" cy="-171.64" rx="39.38" ry="18"/>
<text text-anchor="middle" x="647.4" y="-169.14" font-family="Helvetica,sans-Serif" font-size="10.00" fill="#ffffff">wotr.cards</text>
</g>
<!-- wotr_cards&#45;&gt;wotr_player -->
<g id="edge8" class="edge">
<title>wotr_cards&#45;&gt;wotr_player</title><style>.edge>path:hover{stroke-width:8}</style>
<path fill="none" stroke="black" d="M644.02,-189.66C642.03,-202.97 640.57,-222.02 644.46,-239.22"/>
<polygon fill="#bc2f2f" stroke="black" points="641.18,-240.49 647.4,-249.07 647.89,-238.48 641.18,-240.49"/>
</g>
<!-- wotr_cards&#45;&gt;wotr_state -->
<g id="edge9" class="edge">
<title>wotr_cards&#45;&gt;wotr_state</title><style>.edge>path:hover{stroke-width:8}</style>
<path fill="none" stroke="black" d="M641.22,-189.65C632.31,-211.77 613.74,-250.08 585.4,-271.28 544.22,-302.08 485.85,-314.99 445.12,-320.39"/>
<polygon fill="#bc2f2f" stroke="black" points="444.66,-316.92 435.16,-321.61 445.51,-323.87 444.66,-316.92"/>
</g>
<!-- wotr_deck -->
<g id="node5" class="node">
<title>wotr_deck</title><style>.edge>path:hover{stroke-width:8}</style>
<ellipse fill="#db2f2f" stroke="black" cx="293.4" cy="-469.28" rx="37.85" ry="18"/>
<text text-anchor="middle" x="293.4" y="-466.78" font-family="Helvetica,sans-Serif" font-size="10.00" fill="#ffffff">wotr.deck</text>
</g>
<!-- wotr_deck&#45;&gt;wotr_battleground -->
<g id="edge10" class="edge">
<title>wotr_deck&#45;&gt;wotr_battleground</title><style>.edge>path:hover{stroke-width:8}</style>
<path fill="none" stroke="black" d="M256.45,-464.77C200.05,-458.57 96.65,-443.56 74.4,-415.28 29.1,-357.71 60.62,-318.84 88.4,-251.07"/>
<path fill="none" stroke="black" d="M88.4,-249.07C94.81,-232.21 104.91,-214.87 114.02,-200.97"/>
<polygon fill="#db2f2f" stroke="black" points="117.12,-202.63 119.81,-192.38 111.32,-198.72 117.12,-202.63"/>
</g>
<!-- wotr_path -->
<g id="node9" class="node">
<title>wotr_path</title><style>.edge>path:hover{stroke-width:8}</style>
<ellipse fill="#cc0a0a" stroke="black" cx="370.4" cy="-171.64" rx="36.49" ry="18"/>
<text text-anchor="middle" x="370.4" y="-169.14" font-family="Helvetica,sans-Serif" font-size="10.00" fill="#ffffff">wotr.path</text>
</g>
<!-- wotr_deck&#45;&gt;wotr_path -->
<g id="edge11" class="edge">
<title>wotr_deck&#45;&gt;wotr_path</title><style>.edge>path:hover{stroke-width:8}</style>
<path fill="none" stroke="black" d="M297.87,-451.11C310.71,-401.81 347.75,-259.59 363.34,-199.72"/>
<polygon fill="#db2f2f" stroke="black" points="366.78,-200.42 365.91,-189.86 360,-198.65 366.78,-200.42"/>
</g>
<!-- wotr_deck&#45;&gt;wotr_player -->
<g id="edge12" class="edge">
<title>wotr_deck&#45;&gt;wotr_player</title><style>.edge>path:hover{stroke-width:8}</style>
<path fill="none" stroke="black" d="M326.06,-460.11C376.01,-447.63 471.5,-423.75 528.1,-409.6"/>
<polygon fill="#db2f2f" stroke="black" points="529.01,-412.98 537.86,-407.16 527.31,-406.19 529.01,-412.98"/>
</g>
<!-- wotr_enums -->
<g id="node6" class="node">
<title>wotr_enums</title><style>.edge>path:hover{stroke-width:8}</style>
<ellipse fill="#f91010" stroke="black" cx="452.4" cy="-469.28" rx="43.62" ry="18"/>
<text text-anchor="middle" x="452.4" y="-466.78" font-family="Helvetica,sans-Serif" font-size="10.00" fill="#ffffff">wotr.enums</text>
</g>
<!-- wotr_enums&#45;&gt;wotr_battleground -->
<g id="edge13" class="edge">
<title>wotr_enums&#45;&gt;wotr_battleground</title><style>.edge>path:hover{stroke-width:8}</style>
<path fill="none" stroke="black" d="M88.4,-324.28C84.38,-291.99 76.82,-281.48 88.4,-251.07"/>
</g>
<!-- wotr_enums&#45;&gt;wotr_battlegrounds -->
<g id="edge14" class="edge">
<title>wotr_enums&#45;&gt;wotr_battlegrounds</title><style>.edge>path:hover{stroke-width:8}</style>
<path fill="none" stroke="black" d="M413.14,-461.33C320.8,-443.86 96.89,-394.6 88.4,-326.28"/>
<path fill="none" stroke="black" d="M88.4,-324.28C80.33,-312.17 53.61,-206.67 50.4,-172.64"/>
<path fill="none" stroke="black" d="M50.4,-170.64C48.27,-155.46 49.86,-138.53 52.26,-124.47"/>
<polygon fill="#f91010" stroke="black" points="55.75,-124.84 54.2,-114.36 48.88,-123.52 55.75,-124.84"/>
</g>
<!-- wotr_enums&#45;&gt;wotr_cards -->
<g id="edge15" class="edge">
<title>wotr_enums&#45;&gt;wotr_cards</title><style>.edge>path:hover{stroke-width:8}</style>
<path fill="none" stroke="black" d="M492.1,-461.51C528.41,-454.09 582.66,-439.84 624.4,-415.28 697.84,-372.05 742.46,-334.13 723.4,-251.07"/>
<path fill="none" stroke="black" d="M723.4,-249.07C718.53,-224.95 698.62,-205.44 680.39,-192.18"/>
<polygon fill="#f91010" stroke="black" points="681.88,-188.95 671.66,-186.17 677.92,-194.72 681.88,-188.95"/>
</g>
<!-- wotr_faction_card -->
<g id="node7" class="node">
<title>wotr_faction_card</title><style>.edge>path:hover{stroke-width:8}</style>
<ellipse fill="#db0505" stroke="black" cx="489.4" cy="-250.07" rx="54.39" ry="21.43"/>
<text text-anchor="middle" x="489.4" y="-253.07" font-family="Helvetica,sans-Serif" font-size="10.00" fill="#ffffff">wotr.</text>
<text text-anchor="middle" x="489.4" y="-242.07" font-family="Helvetica,sans-Serif" font-size="10.00" fill="#ffffff">faction_card</text>
</g>
<!-- wotr_enums&#45;&gt;wotr_faction_card -->
<g id="edge16" class="edge">
<title>wotr_enums&#45;&gt;wotr_faction_card</title><style>.edge>path:hover{stroke-width:8}</style>
<path fill="none" stroke="black" d="M415.4,-396.28C405.94,-371.15 432.06,-367.13 444.4,-343.28 455.22,-322.36 466.87,-298.44 475.6,-280.21"/>
<polygon fill="#f91010" stroke="black" points="478.86,-281.52 480.01,-270.99 472.54,-278.5 478.86,-281.52"/>
</g>
<!-- wotr_enums&#45;&gt;wotr_main -->
<g id="edge17" class="edge">
<title>wotr_enums&#45;&gt;wotr_main</title><style>.edge>path:hover{stroke-width:8}</style>
<path fill="none" stroke="black" d="M723.4,-249.07C716.68,-215.77 741.62,-201.3 723.4,-172.64"/>
</g>
<!-- wotr_paths -->
<g id="node10" class="node">
<title>wotr_paths</title><style>.edge>path:hover{stroke-width:8}</style>
<ellipse fill="#a13535" stroke="black" cx="370.4" cy="-93.21" rx="40.06" ry="18"/>
<text text-anchor="middle" x="370.4" y="-90.71" font-family="Helvetica,sans-Serif" font-size="10.00" fill="#ffffff">wotr.paths</text>
</g>
<!-- wotr_enums&#45;&gt;wotr_paths -->
<g id="edge18" class="edge">
<title>wotr_enums&#45;&gt;wotr_paths</title><style>.edge>path:hover{stroke-width:8}</style>
<path fill="none" stroke="black" d="M442.24,-451.5C434.15,-437.61 422.97,-417.16 415.4,-398.28"/>
<path fill="none" stroke="black" d="M415.4,-396.28C401.52,-361.68 369.92,-375.03 350.4,-343.28 314.54,-284.98 324.77,-260.9 317.4,-192.85 315.36,-174.11 310.44,-167.95 317.4,-150.43 322.68,-137.11 332.78,-125.13 342.76,-115.68"/>
<polygon fill="#f91010" stroke="black" points="345.15,-118.23 350.28,-108.96 340.49,-113.01 345.15,-118.23"/>
</g>
<!-- wotr_enums&#45;&gt;wotr_player -->
<g id="edge19" class="edge">
<title>wotr_enums&#45;&gt;wotr_player</title><style>.edge>path:hover{stroke-width:8}</style>
<path fill="none" stroke="black" d="M476.59,-454.28C494.89,-443.69 520.23,-429.04 540.39,-417.38"/>
<polygon fill="#f91010" stroke="black" points="542.34,-420.29 549.24,-412.25 538.83,-414.23 542.34,-420.29"/>
</g>
<!-- wotr_enums&#45;&gt;wotr_state -->
<g id="edge20" class="edge">
<title>wotr_enums&#45;&gt;wotr_state</title><style>.edge>path:hover{stroke-width:8}</style>
<path fill="none" stroke="black" d="M415.4,-396.28C410.17,-382.38 405.93,-366.37 402.88,-353.17"/>
<polygon fill="#f91010" stroke="black" points="406.27,-352.29 400.69,-343.28 399.43,-353.8 406.27,-352.29"/>
</g>
<!-- wotr_faction_card&#45;&gt;wotr_battleground -->
<g id="edge21" class="edge">
<title>wotr_faction_card&#45;&gt;wotr_battleground</title><style>.edge>path:hover{stroke-width:8}</style>
<path fill="none" stroke="black" d="M442.62,-239C378.02,-225.09 261.57,-200.02 191.79,-185"/>
<polygon fill="#db0505" stroke="black" points="192.35,-181.54 181.84,-182.85 190.88,-188.38 192.35,-181.54"/>
</g>
<!-- wotr_faction_card&#45;&gt;wotr_cards -->
<g id="edge22" class="edge">
<title>wotr_faction_card&#45;&gt;wotr_cards</title><style>.edge>path:hover{stroke-width:8}</style>
<path fill="none" stroke="black" d="M522.52,-233.04C548.75,-220.36 585.3,-202.68 612.08,-189.72"/>
<polygon fill="#db0505" stroke="black" points="613.63,-192.86 621.11,-185.36 610.58,-186.56 613.63,-192.86"/>
</g>
<!-- wotr_faction_card&#45;&gt;wotr_path -->
<g id="edge23" class="edge">
<title>wotr_faction_card&#45;&gt;wotr_path</title><style>.edge>path:hover{stroke-width:8}</style>
<path fill="none" stroke="black" d="M453.46,-225.98C436.43,-215.05 416.33,-202.14 400.17,-191.76"/>
<polygon fill="#db0505" stroke="black" points="451.79,-229.07 462.1,-231.53 455.57,-223.18 451.79,-229.07"/>
<polygon fill="#db0505" stroke="black" points="401.95,-188.74 391.64,-186.28 398.16,-194.63 401.95,-188.74"/>
</g>
<!-- wotr_faction_card&#45;&gt;wotr_paths -->
<g id="edge24" class="edge">
<title>wotr_faction_card&#45;&gt;wotr_paths</title><style>.edge>path:hover{stroke-width:8}</style>
<path fill="none" stroke="black" d="M474.84,-229.28C460.04,-209.26 436.38,-177.5 415.4,-150.43 407.14,-139.77 397.86,-128.12 389.88,-118.21"/>
<polygon fill="#db0505" stroke="black" points="392.53,-115.93 383.53,-110.34 387.09,-120.32 392.53,-115.93"/>
</g>
<!-- wotr_faction_card&#45;&gt;wotr_player -->
<g id="edge25" class="edge">
<title>wotr_faction_card&#45;&gt;wotr_player</title><style>.edge>path:hover{stroke-width:8}</style>
<path fill="none" stroke="black" d="M542.77,-254.26C585.13,-259.8 638.51,-274.67 646.4,-314.27"/>
<polygon fill="#db0505" stroke="black" points="642.93,-314.67 647.4,-324.28 649.89,-313.98 642.93,-314.67"/>
<path fill="none" stroke="black" d="M647.4,-326.28C647.54,-352.63 622.45,-372.02 601.45,-383.62"/>
</g>
<!-- wotr_reserve -->
<g id="node12" class="node">
<title>wotr_reserve</title><style>.edge>path:hover{stroke-width:8}</style>
<ellipse fill="#c43131" stroke="black" cx="507.4" cy="-171.64" rx="45.15" ry="18"/>
<text text-anchor="middle" x="507.4" y="-169.14" font-family="Helvetica,sans-Serif" font-size="10.00" fill="#ffffff">wotr.reserve</text>
</g>
<!-- wotr_faction_card&#45;&gt;wotr_reserve -->
<g id="edge26" class="edge">
<title>wotr_faction_card&#45;&gt;wotr_reserve</title><style>.edge>path:hover{stroke-width:8}</style>
<path fill="none" stroke="black" d="M494.22,-228.59C496.3,-219.75 498.76,-209.3 500.99,-199.83"/>
<polygon fill="#db0505" stroke="black" points="504.41,-200.6 503.29,-190.07 497.59,-199 504.41,-200.6"/>
</g>
<!-- wotr_path&#45;&gt;wotr_main -->
<g id="edge29" class="edge">
<title>wotr_path&#45;&gt;wotr_main</title><style>.edge>path:hover{stroke-width:8}</style>
<path fill="none" stroke="black" d="M402.12,-162.46C463.13,-146.32 590,-110.51 580.4,-94.21"/>
<path fill="none" stroke="black" d="M580.4,-92.21C552.59,-45.05 387.79,-27.57 304.51,-21.69"/>
<polygon fill="#cc0a0a" stroke="black" points="304.5,-18.18 294.29,-21 304.03,-25.17 304.5,-18.18"/>
</g>
<!-- wotr_path&#45;&gt;wotr_paths -->
<g id="edge30" class="edge">
<title>wotr_path&#45;&gt;wotr_paths</title><style>.edge>path:hover{stroke-width:8}</style>
<path fill="none" stroke="black" d="M370.4,-143.17C370.4,-136.17 370.4,-128.64 370.4,-121.64"/>
<polygon fill="#cc0a0a" stroke="black" points="366.9,-143.3 370.4,-153.3 373.9,-143.3 366.9,-143.3"/>
<polygon fill="#cc0a0a" stroke="black" points="373.9,-121.22 370.4,-111.22 366.9,-121.22 373.9,-121.22"/>
</g>
<!-- wotr_path&#45;&gt;wotr_scoring_area -->
<g id="edge31" class="edge">
<title>wotr_path&#45;&gt;wotr_scoring_area</title><style>.edge>path:hover{stroke-width:8}</style>
<path fill="none" stroke="black" d="M349.49,-156.62C333.21,-145.71 310.26,-130.33 291.23,-117.56"/>
<polygon fill="#cc0a0a" stroke="black" points="293.05,-114.57 282.79,-111.91 289.15,-120.38 293.05,-114.57"/>
</g>
<!-- wotr_player&#45;&gt;wotr_main -->
<g id="edge34" class="edge">
<title>wotr_player&#45;&gt;wotr_main</title><style>.edge>path:hover{stroke-width:8}</style>
<path fill="none" stroke="black" d="M603.12,-384.61C622.11,-375.79 645.98,-362.01 661.4,-343.28 667.81,-335.49 728.54,-181.32 723.4,-172.64"/>
<path fill="none" stroke="black" d="M723.4,-170.64C684.73,-109.83 617.6,-155.93 580.4,-94.21"/>
</g>
<!-- wotr_player&#45;&gt;wotr_state -->
<g id="edge35" class="edge">
<title>wotr_player&#45;&gt;wotr_state</title><style>.edge>path:hover{stroke-width:8}</style>
<path fill="none" stroke="black" d="M534.21,-380.69C504.64,-368.93 464.3,-352.89 435.1,-341.27"/>
<polygon fill="#932424" stroke="black" points="532.96,-383.96 543.54,-384.4 535.54,-377.46 532.96,-383.96"/>
<polygon fill="#932424" stroke="black" points="436.24,-337.96 425.65,-337.52 433.65,-344.46 436.24,-337.96"/>
</g>
<!-- wotr_reserve&#45;&gt;wotr_player -->
<g id="edge36" class="edge">
<title>wotr_reserve&#45;&gt;wotr_player</title><style>.edge>path:hover{stroke-width:8}</style>
<path fill="none" stroke="black" d="M547.75,-180.04C580.6,-188.44 624.49,-205.71 643.2,-239.98"/>
<polygon fill="#c43131" stroke="black" points="640.03,-241.45 647.4,-249.07 646.38,-238.52 640.03,-241.45"/>
<path fill="none" stroke="black" d="M647.4,-251.07C658.99,-281.47 647.22,-291.74 647.4,-324.28"/>
</g>
<!-- wotr_reserve&#45;&gt;wotr_state -->
<g id="edge37" class="edge">
<title>wotr_reserve&#45;&gt;wotr_state</title><style>.edge>path:hover{stroke-width:8}</style>
<path fill="none" stroke="black" d="M479.33,-185.92C461.78,-195.56 440,-210.17 426.4,-228.85 411.64,-249.11 404.3,-276.98 400.7,-297.36"/>
<polygon fill="#c43131" stroke="black" points="397.24,-296.84 399.15,-307.26 404.16,-297.93 397.24,-296.84"/>
</g>
<!-- wotr_scoring_area&#45;&gt;wotr_main -->
<g id="edge38" class="edge">
<title>wotr_scoring_area&#45;&gt;wotr_main</title><style>.edge>path:hover{stroke-width:8}</style>
<path fill="none" stroke="black" d="M256.4,-71.82C256.4,-63.97 256.4,-54.86 256.4,-46.45"/>
<polygon fill="#bc2f2f" stroke="black" points="259.9,-46.31 256.4,-36.31 252.9,-46.31 259.9,-46.31"/>
</g>
<!-- wotr_scoring_area&#45;&gt;wotr_state -->
<g id="edge39" class="edge">
<title>wotr_scoring_area&#45;&gt;wotr_state</title><style>.edge>path:hover{stroke-width:8}</style>
<path fill="none" stroke="black" d="M262.14,-114.32C272.67,-148.85 297.52,-220.58 335.4,-271.28 344.54,-283.51 356.97,-294.84 368.31,-303.86"/>
<polygon fill="#bc2f2f" stroke="black" points="366.25,-306.69 376.31,-310 370.51,-301.13 366.25,-306.69"/>
</g>
<!-- wotr_state&#45;&gt;wotr_battleground -->
<g id="edge40" class="edge">
<title>wotr_state&#45;&gt;wotr_battleground</title><style>.edge>path:hover{stroke-width:8}</style>
<path fill="none" stroke="black" d="M353,-314.47C320.57,-306.09 276.34,-292.04 241.4,-271.28 209.09,-252.08 178.21,-221.9 158,-199.97"/>
<polygon fill="#a90404" stroke="black" points="352.53,-317.97 363.09,-317 354.23,-311.18 352.53,-317.97"/>
<polygon fill="#a90404" stroke="black" points="160.36,-197.36 151.05,-192.3 155.17,-202.06 160.36,-197.36"/>
</g>
<!-- wotr_state&#45;&gt;wotr_battlegrounds -->
<g id="edge41" class="edge">
<title>wotr_state&#45;&gt;wotr_battlegrounds</title><style>.edge>path:hover{stroke-width:8}</style>
<path fill="none" stroke="black" d="M358.98,-324.32C273.33,-322.05 72.53,-302.75 50.4,-172.64"/>
</g>
<!-- wotr_state&#45;&gt;wotr_faction_card -->
<g id="edge42" class="edge">
<title>wotr_state&#45;&gt;wotr_faction_card</title><style>.edge>path:hover{stroke-width:8}</style>
<path fill="none" stroke="black" d="M423.94,-303.16C434.7,-294.6 447.2,-284.65 458.37,-275.75"/>
<polygon fill="#a90404" stroke="black" points="421.66,-300.5 416.01,-309.46 426.02,-305.98 421.66,-300.5"/>
<polygon fill="#a90404" stroke="black" points="460.59,-278.47 466.23,-269.5 456.23,-272.99 460.59,-278.47"/>
</g>
<!-- wotr_state&#45;&gt;wotr_main -->
<g id="edge43" class="edge">
<title>wotr_state&#45;&gt;wotr_main</title><style>.edge>path:hover{stroke-width:8}</style>
<path fill="none" stroke="black" d="M435.1,-322.09C470.88,-317.88 523.39,-305.78 552.4,-271.28 578.03,-240.79 600.63,-128.53 580.4,-94.21"/>
</g>
<!-- wotr_state&#45;&gt;wotr_path -->
<g id="edge44" class="edge">
<title>wotr_state&#45;&gt;wotr_path</title><style>.edge>path:hover{stroke-width:8}</style>
<path fill="none" stroke="black" d="M392.55,-297.04C387.66,-269.6 380.17,-227.5 375.27,-200.01"/>
<polygon fill="#a90404" stroke="black" points="389.15,-297.95 394.35,-307.18 396.04,-296.72 389.15,-297.95"/>
<polygon fill="#a90404" stroke="black" points="378.67,-199.14 373.47,-189.91 371.78,-200.37 378.67,-199.14"/>
</g>
<!-- wotr_state&#45;&gt;wotr_paths -->
<g id="edge45" class="edge">
<title>wotr_state&#45;&gt;wotr_paths</title><style>.edge>path:hover{stroke-width:8}</style>
<path fill="none" stroke="black" d="M384.91,-308.01C367.55,-284.25 336.95,-237.97 325.4,-192.85 320.72,-174.59 319.15,-168.22 325.4,-150.43 329.73,-138.08 338.05,-126.43 346.36,-116.97"/>
<polygon fill="#a90404" stroke="black" points="349,-119.28 353.26,-109.58 343.88,-114.5 349,-119.28"/>
</g>
</g>
</svg>
